# xmcd
#
# Track frame offsets:
#	150
#	15480
#	29896
#	47695
#	65018
#	79208
#	91590
#	110165
#	136101
#	153065
#
# Disc length: 2226 seconds
#
# Revision: 0
# Processed by: cddbd v1.5.1PL0 Copyright (c) Steve Scherf et al.
# Submitted via: dBpowerAMP V4.0
#
DISCID=7908b00a
DTITLE=Mason Williams - Hand Made
DYEAR=197
DGENRE=Country
TTITLE0=Jose's Piece
TTITLE1=Reason to Believe
TTITLE2=Saturday Night at the World
TTITLE3=Tear-Stained Monologue
TTITLE4=All the Time
TTITLE5=Classical Gas
TTITLE6=The Tomato Vendetta
TTITLE7=Manha De Carnival
TTITLE8=It's Over
TTITLE9=The Exciting Accident
EXTD=CD Transfer from WB Masters now owned by Mason Williams. 
EXTT0=
EXTT1=
EXTT2=
EXTT3=
EXTT4=
EXTT5=
EXTT6=
EXTT7=
EXTT8=
EXTT9=
PLAYORDER=
